<svg xmlns="http://www.w3.org/2000/svg" width="100%" height="100%" viewBox="0 0 100 60"><rect width="100" height="60" fill="#020543"/><g fill-opacity=".9"><rect width="11" height="11" fill="#020543"/><rect width="11" height="11" x="10" fill="#020542"/><rect width="11" height="11" y="10" fill="#020542"/><rect width="11" height="11" x="20" fill="#020541"/><rect width="11" height="11" x="10" y="10" fill="#020540"/><rect width="11" height="11" y="20" fill="#02053f"/><rect width="11" height="11" x="30" fill="#02053f"/><rect width="11" height="11" x="20" y="10" fill="#02053e"/><rect width="11" height="11" x="10" y="20" fill="#02053d"/><rect width="11" height="11" y="30" fill="#03053d"/><rect width="11" height="11" x="40" fill="#03053c"/><rect width="11" height="11" x="30" y="10" fill="#03053b"/><rect width="11" height="11" x="20" y="20" fill="#03053a"/><rect width="11" height="11" x="10" y="30" fill="#03053a"/><rect width="11" height="11" y="40" fill="#040539"/><rect width="11" height="11" x="50" fill="#040538"/><rect width="11" height="11" x="40" y="10" fill="#040437"/><rect width="11" height="11" x="30" y="20" fill="#040437"/><rect width="11" height="11" x="20" y="30" fill="#040436"/><rect width="11" height="11" x="10" y="40" fill="#040435"/><rect width="11" height="11" y="50" fill="#040434"/><rect width="11" height="11" x="60" fill="#050434"/><rect width="11" height="11" x="50" y="10" fill="#050433"/><rect width="11" height="11" x="40" y="20" fill="#050432"/><rect width="11" height="11" x="30" y="30" fill="#050431"/><rect width="11" height="11" x="20" y="40" fill="#050431"/><rect width="11" height="11" x="10" y="50" fill="#050430"/><rect width="11" height="11" x="70" fill="#05032f"/><rect width="11" height="11" x="60" y="10" fill="#05032e"/><rect width="11" height="11" x="50" y="20" fill="#05032e"/><rect width="11" height="11" x="40" y="30" fill="#05032d"/><rect width="11" height="11" x="30" y="40" fill="#05032c"/><rect width="11" height="11" x="20" y="50" fill="#05032b"/><rect width="11" height="11" x="80" fill="#05032b"/><rect width="11" height="11" x="70" y="10" fill="#05032a"/><rect width="11" height="11" x="60" y="20" fill="#050329"/><rect width="11" height="11" x="50" y="30" fill="#050328"/><rect width="11" height="11" x="40" y="40" fill="#050228"/><rect width="11" height="11" x="30" y="50" fill="#050227"/><rect width="11" height="11" x="90" fill="#050226"/><rect width="11" height="11" x="80" y="10" fill="#040225"/><rect width="11" height="11" x="70" y="20" fill="#040225"/><rect width="11" height="11" x="60" y="30" fill="#040224"/><rect width="11" height="11" x="50" y="40" fill="#040223"/><rect width="11" height="11" x="40" y="50" fill="#040222"/><rect width="11" height="11" x="90" y="10" fill="#040222"/><rect width="11" height="11" x="80" y="20" fill="#030221"/><rect width="11" height="11" x="70" y="30" fill="#030120"/><rect width="11" height="11" x="60" y="40" fill="#03011f"/><rect width="11" height="11" x="50" y="50" fill="#03011f"/><rect width="11" height="11" x="90" y="20" fill="#03011e"/><rect width="11" height="11" x="80" y="30" fill="#02011d"/><rect width="11" height="11" x="70" y="40" fill="#02011c"/><rect width="11" height="11" x="60" y="50" fill="#02011c"/><rect width="11" height="11" x="90" y="30" fill="#01011b"/><rect width="11" height="11" x="80" y="40" fill="#01001a"/><rect width="11" height="11" x="70" y="50" fill="#010019"/><rect width="11" height="11" x="90" y="40" fill="#010019"/><rect width="11" height="11" x="80" y="50" fill="#000018"/><rect width="11" height="11" x="90" y="50" fill="#000017"/></g></svg>