<svg xmlns="http://www.w3.org/2000/svg" xmlns:xlink="http://www.w3.org/1999/xlink" viewBox="0 0 1920 1080"><defs><style>.a{clip-path:url(#c);}.b,.j{fill:#6c63ff;}.b,.g,.i,.k{opacity:0.1;}.c{fill:url(#a);}.d{fill:#be6f72;}.e{fill:#3f3d56;}.f{fill:#65617d;}.h{fill:#e3e8f4;}.k{fill:#fff;}.l{fill:rgba(255,255,255,0);}</style><linearGradient id="a" x1="0.5" y1="1" x2="0.5" gradientUnits="objectBoundingBox"><stop offset="0" stop-color="gray" stop-opacity="0.251"/><stop offset="0.54" stop-color="gray" stop-opacity="0.122"/><stop offset="1" stop-color="gray" stop-opacity="0.102"/></linearGradient><clipPath id="c"><rect width="1920" height="1080"/></clipPath></defs><g id="b" class="a"><rect class="l" width="1920" height="1080"/><g transform="translate(388.02 214)"><path class="b" d="M715.72,594.05c22.1-1.26,49.52-16.25,70.84-22.88q37.85-11.74,76-22.59,132.81-37.79,268.47-64.4,12.66-2.49,25.36-4.86a179.511,179.511,0,0,0-59.26-71.17,182.09,182.09,0,0,0,1-18.78c0-99.14-79.23-179.51-177-179.51a174.179,174.179,0,0,0-85.9,22.55c-69.2-45.52-159.52-73.07-258.34-73.07-140.42,0-263.69,55.63-333.54,139.4L571.63,354.2l201.34,34c-229.53,6.85-459.77,13.66-688.64-2.42a181.42,181.42,0,0,0-26.12,229h0c0,3.59.15,7.15.42,10.68,5.83,1.67,11.46,3.29,16.51,4.35q121.61,25.69,244.78,43c-60.51,37.31-134.2,42.59-204,58.39,33.8,27.9,79.7,45,130.28,45H999.32c81.55,0,147.65-56.77,147.65-126.81h0a180.188,180.188,0,0,0,24-65.89C1020.07,598.07,867.29,585.42,715.72,594.05Z" transform="translate(-28 -123.74)"/><path class="b" d="M1172,553.67a180,180,0,0,0-76-147.42,184.682,184.682,0,0,0,1-18.77C1097,288.34,1017.73,208,920,208a174.28,174.28,0,0,0-85.91,22.54c-69.2-45.54-159.53-73.1-258.35-73.1C415,157.44,276.64,230.39,215.28,335c-3.41-.2-6.84-.31-10.3-.31-97.74,0-177,80.37-177,179.51A180.53,180.53,0,0,0,57.1,612.87h0c0,89.2,84.19,161.51,188,161.51H998.24c81.54,0,147.64-56.78,147.64-126.82h0A180.52,180.52,0,0,0,1172,553.67Z" transform="translate(-28 -123.74)"/><path class="c" d="M962.28,443.69a11.139,11.139,0,0,0-4.88-2.14c-1.87-.43-3.78-.7-5.68-1L927.1,437a29,29,0,0,0-7.54-.4A9.57,9.57,0,0,0,913,440a5.111,5.111,0,0,0-1.14,3.2,8.441,8.441,0,0,0,1.12,3.32,11.108,11.108,0,0,1,.61,1.47,33.62,33.62,0,0,0,.88,3.35,2.842,2.842,0,0,0,.42.66,1.083,1.083,0,0,1,0,.17c-.27,1.38.6,2.82.21,4.15-.34,1.14-1.45,1.83-2.15,2.78a4.18,4.18,0,0,0-.1,4.61c.75,1.16,2.11,1.95,2.5,3.28.51,1.75-.87,3.44-2.1,4.79a74.236,74.236,0,0,0-6.26,7.89,4.89,4.89,0,0,0-1,2.35c-.11,1.74,1.56,3.27,1.27,5-.23,1.36-1.56,2.19-2.71,3-4.25,2.8-7.66,7.3-8,12.39a43.4,43.4,0,0,0-9.68-22c-1.43-1.72-3-3.45-3.59-5.63-.22-.87-.26-1.8-.56-2.64-1-2.65-4.18-3.79-5.57-6.23-1-1.72-1-3.93-2.24-5.44s-3.19-1.85-4.26-3.31a21.168,21.168,0,0,1-1.36-3.08,6.731,6.731,0,0,0-1.85-2.22,5.385,5.385,0,0,0-.46-.33,1.589,1.589,0,0,0,.53-1.18c0-1.17-1.16-1.94-2.17-2.52-1.3-.74-2.57-1.54-3.81-2.37a8.91,8.91,0,0,0,3.41-2.79,9.17,9.17,0,0,0,1.3-6,7.571,7.571,0,0,0-1.79-4.59c-.63-.67-1.42-1.15-2.08-1.78-1.71-1.67-2.29-4.14-3-6.42-.94-3-2.41-6.15-5.15-7.74-1.32-.77-2.86-1.13-4.15-1.94s-2.37-2.34-1.92-3.81c.3-1,1.23-1.69,1.86-2.54a5.06,5.06,0,0,0-1.27-7c-.74-.47-1.65-.88-1.8-1.74a3.18,3.18,0,0,1-2.32-2.46,9.481,9.481,0,0,1,0-3.56q.39-2.79.77-5.56a3.62,3.62,0,0,0,2.78,0,24.475,24.475,0,0,0,3,3.92,39.17,39.17,0,0,1,7,12.15c.57,1.6,1.15,3.39,2.63,4.24.51.29,1.09.44,1.59.75a5.938,5.938,0,0,1,1.56,1.6c1.2,1.59,2.4,3.17,3.59,4.76l.06.24a1.4,1.4,0,0,0,.16.4,1.33,1.33,0,0,0,.86.44c3.68.85,7.81,1.63,11-.38,2.88-1.8,4.14-5.36,6.58-7.74,1.73-1.69,4.18-3,4.67-5.38a17.708,17.708,0,0,1-1.72-.63c.5-.5,1-1.08,1.68-1.74a21.179,21.179,0,0,0,2.66-3.17,20.433,20.433,0,0,0,2-4.48q2.89-8.24,5.8-16.49c.92-2.6,1.84-5.22,3-7.75,1.2-2.74,2.62-5.37,3.93-8.06a107,107,0,0,0,7.78-21.9,8,8,0,0,0,.31-3.19c-.28-1.73-1.59-3.09-2.84-4.32a20.842,20.842,0,0,0-4.26-3.53,7,7,0,0,0-5.34-.86c-2.56.75-4.17,3.37-4.76,6s-.37,5.34-.62,8c-.36,3.85-1.68,7.57-2,11.43-.17,2.23,0,4.49-.27,6.72a24.52,24.52,0,0,1-3,8.28,53.6,53.6,0,0,1-12.93,15.94c-.61.51-1.24,1-1.84,1.55a9.541,9.541,0,0,1,.13-1.3,7.841,7.841,0,0,0-1.27.45,3.81,3.81,0,0,0-.15-1.5c-.8-2.39-4.36-3-5-5.43a11.111,11.111,0,0,1-.17-1.82c-.21-2.13-1.66-3.93-2.16-6-.46-1.91-.11-4-1-5.77a16.128,16.128,0,0,0-2.66-3,11.77,11.77,0,0,1-2.53-4.77c-.13-.49-.25-1-.39-1.49a6.82,6.82,0,0,0-.36-3.29c-.91-2.26-3.26-3.71-4.11-6-.66-1.78-.37-4-1.62-5.38a5.851,5.851,0,0,0-2.37-1.43,52.729,52.729,0,0,0-14.27-3.37c-2.74-.25-5.76-.39-7.72-2.32-2.29-2.24-2.4-6.27-5.08-8-2.36-1.53-5.7-.4-7.53,1.75a9.525,9.525,0,0,0-.76,1,10.7,10.7,0,0,1-.21-4.1c0-.34.07-.69.1-1A20,20,0,0,0,830.16,313v.06l.12.31c.29.73.75,1.43,1.43,1.51h0a2,2,0,0,0,1.24-.45,10.266,10.266,0,0,0,1.66-1.44q.38-.42.72-.87a11.328,11.328,0,0,0,1.18-2,11.885,11.885,0,0,0,1-3.35c.18-1.16.2-2.35.4-3.51a21.606,21.606,0,0,1,.73-2.65c.1-.29.2-.58.29-.87s.22-.68.32-1a23.17,23.17,0,0,0,1-6.34v-1.08a10.55,10.55,0,0,0-3.36-7.45c-1.72-1.41-4-2-5.26-3.91-.82-1.28-1-2.93-1.48-4.43a10,10,0,0,0-7.86-7.07,8.75,8.75,0,0,0-6.22,1.71h0l-.14.11h0a10,10,0,0,0-2.48,2.76,8.249,8.249,0,0,1-3.52-2c-1-.93-1.77-2.1-2.78-3a7.15,7.15,0,0,0-7.12-1.5,8.51,8.51,0,0,0-5.09,5.83c-.55,2.06-.45,4.43-1.6,6.15-.89,1.34-2.35,2-3.37,3.22a6.061,6.061,0,0,0-1.26,2.67h0a7.233,7.233,0,0,0-.17,1.67h0a3.043,3.043,0,0,0,.06.74v.12a5.291,5.291,0,0,0,.17.81h0a7,7,0,0,0,1.49,2.74,6.581,6.581,0,0,0,2.41,1.74,9.764,9.764,0,0,0,1.16.37l1.19.27.42.1a19.94,19.94,0,0,0-.56,17.61,8.021,8.021,0,0,1-.1.84,69.163,69.163,0,0,0,.52,11.79c.14,1.55.22,3.26-.73,4.49a8.515,8.515,0,0,1-1.45,1.29c.54-.7,1.09-1.39,1.65-2.08-1.41-1.42-3.64-1.6-5.64-1.46a26.131,26.131,0,0,0-11,3.36c-2.24,1.29-4.54,3-7.1,2.7-1.51-.17-3-1-4.47-.6a9.06,9.06,0,0,0-2.29,1.36,3.1,3.1,0,0,1-1.88.58c-1.57-1.93-4-3.24-5.88-4.81a46.329,46.329,0,0,1-5.85-6.27c-3.24-3.91-6.47-7.83-9.65-11.78-2.68-3.32-5.43-6.91-5.9-11.16a10.914,10.914,0,0,1-.07-1.27,32.305,32.305,0,0,1,.76-6,3,3,0,0,0,0-1.45c-.3-1-1.45-1.37-2.44-1.59h0c.13-.77.22-1.56.27-2.31.56-8.6-.05-17.34,1.77-25.76.69-3.24,1.82-6.52,4.15-8.87,3.65-3.69,9.76-4.58,12.56-8.95,2.34-3.64,1.41-8.79-1.53-12s-7.47-4.52-11.78-4.36a6.08,6.08,0,0,0-3.43.92,7.29,7.29,0,0,0-2.08,3.16L729,240.78a63.089,63.089,0,0,0-3.14,8.38c-1.2,4.38-1.47,9-2.42,13.42,0,3.4-2.19,7.64-3.39,10.77-1.34,3.52-2.79,7-4,10.59-.3.9-1.35,3.57-2,6a3.66,3.66,0,0,0-.68.51,18.1,18.1,0,0,0-1.42,2.11c-.91,1.2-2.39,1.84-3.39,3s-1.21,3.29.18,3.87a4.081,4.081,0,0,0,.87.19,3.383,3.383,0,0,1,.54.09c1.5.42,2.09,2.31,1.87,3.87s-1,3-1.13,4.56c-.27,2.76,1.35,5.33,2.91,7.65a65.945,65.945,0,0,0,5.34,7.19c1.41,1.58,3,3,4.42,4.52,5.41,5.56,9.71,12.06,14.57,18.1a40.131,40.131,0,0,0,5.93,6.22,44.663,44.663,0,0,0,4.49,3.09l8.36,5.3a9.161,9.161,0,0,0,3.16,1.49,4.2,4.2,0,0,0,1.12,0c.05.25.09.49.15.74.65,2.62,2.08,5,2.24,7.67s-.08,5.4.11,8.1c.18,2.49.73,5,.87,7.45.28,4.72-.88,9.38-2,14-1.69,6.76-2.71,13.66-6,19.79-.92,1.69-2,3.41-2,5.34a2.764,2.764,0,0,0,.06.7h0l-1.5.85c-.44.25-.88.5-1.28.76-1.9,1.24-3.93,2.61-4.71,4.75-.63,1.73-.34,3.71-1.1,5.39a2.385,2.385,0,0,1-.12.22c-.8,1.56-2.39,2.72-2.75,4.43h0c-.27,1.31.25,2.7,0,4v.05a14.477,14.477,0,0,0-.54,2,2.391,2.391,0,0,0,.06.66,3.81,3.81,0,0,0,1.2,1.95,8,8,0,0,0,1.17.93q.64.42,1.32.78l.26.14c.38.2.76.39,1.15.57l.26.11c.45.2.91.38,1.37.54l.32.1c.36.12.73.23,1.1.32l.25.08.23.05,1,.21.37.07q.66.11,1.35.18h.4c.34,0,.67.05,1,.06h1.83a11.2,11.2,0,0,0,1.41-.13h.15c.42-.06.84-.13,1.26-.22l.32-.07c.39-.09.78-.18,1.17-.3l.21-.06c.47-.14.94-.29,1.4-.47a36.742,36.742,0,0,0,4.62-2.29c1-.55,2-1.11,3-1.62a23.292,23.292,0,0,1,2.28-1,12.871,12.871,0,0,1,6-1,23.5,23.5,0,0,1,3,.61q0,.165,0,.33,1.22,7.2,2.41,14.4a29.314,29.314,0,0,1,4.14-2.49,9.2,9.2,0,0,0-.53,2.25,8.918,8.918,0,0,0,0,1.79c.09.95.29,2-.28,2.75-.35.46-1,.72-1.19,1.24a4.232,4.232,0,0,0-.1,1.63,2.6,2.6,0,0,1-2.38,2.42,3.8,3.8,0,0,1-1.51,4.46,5.283,5.283,0,0,0-1.16.76,3.46,3.46,0,0,0-.67,1.51,26.721,26.721,0,0,1-7.83,12.87,25.173,25.173,0,0,0-3.87,3.78,17.2,17.2,0,0,0-1.75,3.45q-4,9.78-8.12,19.57a43.425,43.425,0,0,0-3.48,11.29c-1.2,10.78-10.8,19.92-9,30.62a15,15,0,0,0,3.12,7.31c2,2.41,5,3.79,8,4.91,7.71,3,15.84,4.64,23.94,6.29l12.72,2.61a55.609,55.609,0,0,0,7.58,1.2c3.07.21,6.22-.08,9.21.7,1.85.48,3.62,1.37,5.53,1.47,1.64.09,3.66-.26,4.63,1.08s.22,3.11,1.14,4.3c1.48,1.89,5.09,0,6.7,1.78a8.292,8.292,0,0,1,1,2.21,4,4,0,0,0,1,1.26,8.453,8.453,0,0,1,.12,1.71,29.485,29.485,0,0,1-1.44,6.82q-1.8,6.09-3.59,12.19a27,27,0,0,0-1,4.4,10.57,10.57,0,0,0,0,2.18c.21,2.21,1.48,4.49,3.59,5.21a6.58,6.58,0,0,0,4.86-.6,21.48,21.48,0,0,0,4-2.7,27.311,27.311,0,0,0,5.77-5.94c5-7.48,3.38-17.6,6.89-25.87,2.33-5.52,6.87-10,8.38-15.82a6.33,6.33,0,0,0,.12-3.42c-.63-2-2.76-3.14-4.75-3.86h-.09a40.99,40.99,0,0,0-5-1.43c-.42-.09-.85-.16-1.28-.23a7.85,7.85,0,0,1-2.21-2.88,6.7,6.7,0,0,0-.47-1.73,1.8,1.8,0,0,0-1.44-.8c-1-.1-2.34.26-3.43.18-2.23-.16-3.71-2.35-5.71-3.36s-4.17-.76-6.3-.61a5.829,5.829,0,0,1-2.28-.14,8.573,8.573,0,0,1-2.4-1.65,10.06,10.06,0,0,0-8.81-1.77,9.6,9.6,0,0,1-3,.68c-1.95-.11-3.33-1.85-4.77-3.17-3.94-3.61-9.55-4.56-14.33-6.93a3.27,3.27,0,0,1-1.72-1.48c-.55-1.36.69-2.72,1.81-3.65l8.22-6.83c9-7.48,20.25-13.11,24.43-24.08a13.929,13.929,0,0,1,2-4.11,5.579,5.579,0,0,1,1.11-1,8.4,8.4,0,0,1,6.15-1.2,20.77,20.77,0,0,1,7.24,3.16q5.37,3.25,10.45,7A92.454,92.454,0,0,1,862,522c5.25,5,9.62,10.93,14.51,16.32s10.48,10.42,17.27,13,15,2.47,20.83-1.86c6.73-5,8.89-13.94,10.59-22.14,3.75-3.62,4.88-9.13,6.71-14,1.15-3.09,2.62-6,3.86-9.08,1.48-3.62,2.64-7.36,3.8-11.09a53.335,53.335,0,0,0,2.66-11.57c.48-6.23-1.19-12.86.56-18.71,2.31-.51,4.41-1.81,6.68-2.57,3.38-1.11,7-.93,10.58-.91h.23a5.46,5.46,0,0,0,3.52-.83c1.2-1,1.39-2.71,1.45-4.26C965.39,450.47,965.15,446.17,962.28,443.69ZM817.39,273.11a7.428,7.428,0,0,1-2.53.18Z" transform="translate(-28 -123.74)"/><path class="d" d="M821.33,336.37a11,11,0,0,1-4.16,2.21l-7.09,2.54c-3.85,1.38-7.87,2.77-11.93,2.27-2.27-.28-12-1.71-13.47-3.48-2.24-2.74,5.61-6.77,8.29-9.08a11.338,11.338,0,0,0,1.68-1.48c1-1.22.87-2.93.73-4.47a69,69,0,0,1-.52-11.77,23.748,23.748,0,0,1,.4-2.79c1-4.6,5.28-2.92,8.66-1.7a67.717,67.717,0,0,1,11.75,5.09,8.43,8.43,0,0,1,2.9,2.46c1.48,2.24.89,5.18.65,8-.21,2.19-.2,4.29,1.17,5.88a15.137,15.137,0,0,1,1.89,2A3.75,3.75,0,0,1,821.33,336.37Z" transform="translate(-28 -123.74)"/><path class="d" d="M723.39,264.3c1-4.43,1.22-9,2.42-13.39a62.7,62.7,0,0,1,3.14-8.35l4.41-10.29a7.26,7.26,0,0,1,2.08-3.15,6.16,6.16,0,0,1,3.43-.92c4.31-.16,8.84,1.18,11.78,4.35s3.87,8.3,1.53,11.93c-2.8,4.37-8.91,5.25-12.56,8.93-2.33,2.35-3.46,5.62-4.15,8.85-1.82,8.4-1.21,17.11-1.77,25.69-.18,2.67-.7,5.72-3,7.1a8.75,8.75,0,0,1-4.48.87l-6.56.11c-1.1,0-5.09.69-5.82-.14-1.28-1.45,1.64-8.67,2.17-10.28,1.18-3.57,2.63-7.05,4-10.56C721.2,271.92,723.39,267.69,723.39,264.3Z" transform="translate(-28 -123.74)"/><path class="e" d="M858.84,578.46c-1.51,5.78-6.05,10.28-8.38,15.79-3.51,8.25-1.93,18.34-6.89,25.8A27.256,27.256,0,0,1,837.8,626a21.427,21.427,0,0,1-4,2.69,6.58,6.58,0,0,1-4.86.6c-2.11-.72-3.38-3-3.59-5.2a10.49,10.49,0,0,1,0-2.17,26.894,26.894,0,0,1,1-4.39q1.8-6.07,3.59-12.16a29.435,29.435,0,0,0,1.44-6.8c.13-2.52-1.47-5.8-.79-8.15.31-1.06,1.47-2,2-2.89a16.731,16.731,0,0,0,1.72-4.09c.82-2.79,1.38-5.77,3.1-8.12a19.057,19.057,0,0,1,3.9-3.65,10.34,10.34,0,0,1,3.72-2.09,9.109,9.109,0,0,1,4,.19,39.261,39.261,0,0,1,5,1.42h.09c2,.72,4.12,1.83,4.75,3.85A6.289,6.289,0,0,1,858.84,578.46Z" transform="translate(-28 -123.74)"/><path class="e" d="M965.24,455.52c-.06,1.55-.25,3.28-1.45,4.25a5.459,5.459,0,0,1-3.52.83H960c-3.57,0-7.2-.2-10.58.91-2.57.85-4.93,2.41-7.61,2.72-3.69.42-7.16-1.6-10.43-3.36a103.757,103.757,0,0,0-9.47-4.5c-2.12-.87-6.45-1.43-7.47-3.75a34.148,34.148,0,0,1-.88-3.34,11.1,11.1,0,0,0-.61-1.47,8.45,8.45,0,0,1-1.12-3.31,5.11,5.11,0,0,1,1.14-3.2,9.59,9.59,0,0,1,6.55-3.37,29,29,0,0,1,7.54.4l24.62,3.54c1.9.27,3.81.54,5.68,1a11.141,11.141,0,0,1,4.88,2.14C965.15,447.45,965.39,451.74,965.24,455.52Z" transform="translate(-28 -123.74)"/><path class="f" d="M943.6,461.92c-3,6.33-.84,13.82-1.38,20.82a53.073,53.073,0,0,1-2.66,11.54c-1.16,3.72-2.32,7.45-3.8,11.06-1.24,3-2.71,6-3.86,9.06-1.83,4.88-3,10.37-6.71,14-1.7,8.18-3.86,17.12-10.59,22.08-5.85,4.32-14,4.47-20.83,1.86s-12.38-7.61-17.27-13-9.26-11.26-14.51-16.28a91,91,0,0,0-9.57-7.83q-5.08-3.69-10.45-6.94a20.931,20.931,0,0,0-7.24-3.15,8.4,8.4,0,0,0-6.15,1.2,5.58,5.58,0,0,0-1.11,1,13.76,13.76,0,0,0-2,4.1C821.27,522.38,810,528,801,535.46l-8.22,6.81c-1.12.93-2.36,2.29-1.81,3.64a3.27,3.27,0,0,0,1.72,1.48c4.78,2.36,10.39,3.31,14.33,6.91,1.44,1.32,2.82,3.06,4.77,3.16a9.579,9.579,0,0,0,3-.67,10.09,10.09,0,0,1,8.81,1.76,8.57,8.57,0,0,0,2.4,1.65,5.83,5.83,0,0,0,2.28.14c2.13-.15,4.39-.34,6.3.61s3.48,3.19,5.71,3.35c1.09.08,2.39-.28,3.43-.18a1.8,1.8,0,0,1,1.44.8,6.628,6.628,0,0,1,.47,1.72c.41,1.41,1.79,2.27,2.69,3.43,1.38,1.78,1.58,4.2,1.44,6.45A27.52,27.52,0,0,1,841,594.94a10.84,10.84,0,0,1-5.39,3,5,5,0,0,1-5.34-2.37,8.219,8.219,0,0,0-1-2.2c-1.61-1.77-5.22.11-6.7-1.78-.92-1.18-.26-3.07-1.14-4.29s-3-1-4.63-1.07c-1.91-.1-3.68-1-5.53-1.47-3-.78-6.14-.49-9.21-.7a55.6,55.6,0,0,1-7.58-1.2l-12.72-2.6c-8.1-1.65-16.23-3.32-23.94-6.27-2.95-1.12-5.92-2.5-8-4.9a15,15,0,0,1-3.12-7.3c-1.81-10.67,7.79-19.79,9-30.54.43-3.92,2-7.62,3.48-11.26q4.07-9.76,8.12-19.53A17.393,17.393,0,0,1,769,497a25.108,25.108,0,0,1,3.87-3.77,26.631,26.631,0,0,0,7.83-12.84,3.461,3.461,0,0,1,.67-1.51,5.622,5.622,0,0,1,1.16-.75,3.8,3.8,0,0,0,1.51-4.45,2.6,2.6,0,0,0,2.38-2.42,4.18,4.18,0,0,1,.1-1.62c.24-.52.84-.78,1.19-1.24.57-.75.37-1.8.28-2.74a8.924,8.924,0,0,1,0-1.79,9.19,9.19,0,0,1,2.68-5.59c2.39-2.35,5.79-1.74,9.09-2.3a52.071,52.071,0,0,0,9.6-3.07,94.311,94.311,0,0,1,27.11-6.27A59.19,59.19,0,0,1,863.85,451a15.569,15.569,0,0,1,3.53,2,6.69,6.69,0,0,1,1.85,2.21,20.6,20.6,0,0,0,1.36,3.07c1.07,1.46,3.09,1.93,4.26,3.31s1.27,3.71,2.24,5.42c1.39,2.44,4.61,3.57,5.57,6.22.3.84.34,1.76.56,2.63.54,2.18,2.16,3.9,3.59,5.62a43.21,43.21,0,0,1,9.68,22c.32-5.07,3.73-9.56,8-12.36,1.15-.75,2.48-1.58,2.71-2.94.29-1.72-1.38-3.25-1.27-5a4.9,4.9,0,0,1,1-2.34,74.005,74.005,0,0,1,6.26-7.87c1.23-1.35,2.61-3,2.1-4.78-.39-1.33-1.75-2.11-2.5-3.27a4.16,4.16,0,0,1,.1-4.6c.7-.95,1.81-1.64,2.15-2.77.39-1.33-.48-2.77-.21-4.14a5.12,5.12,0,0,1,2.06-2.67,17.13,17.13,0,0,1,4.47-2.94c2.64-1,5.58-.63,8.38-.24,4.68.65,9.93,1.65,12.57,5.57C944,455.58,944.86,459.3,943.6,461.92Z" transform="translate(-28 -123.74)"/><path class="g" d="M965.24,455.52c-.06,1.55-.25,3.28-1.45,4.25a5.459,5.459,0,0,1-3.52.83H960c.41-2.08,2.94-3.27,3.38-5.38a4.76,4.76,0,0,0-1.1-3.63c-2.14-2.89-5.58-4.49-9-5.66a59.62,59.62,0,0,0-30.06-2.25,30.269,30.269,0,0,0-7.9,2.43,25.737,25.737,0,0,0-2.4,1.7,8.451,8.451,0,0,1-1.12-3.31,5.11,5.11,0,0,1,1.14-3.2,9.59,9.59,0,0,1,6.55-3.37,29,29,0,0,1,7.54.4l24.62,3.54c1.9.27,3.81.54,5.68,1a11.14,11.14,0,0,1,4.88,2.14C965.15,447.45,965.39,451.74,965.24,455.52Z" transform="translate(-28 -123.74)"/><path class="g" d="M858.84,578.46c-1.51,5.78-6.05,10.28-8.38,15.79-3.51,8.25-1.93,18.34-6.89,25.8A27.256,27.256,0,0,1,837.8,626a21.427,21.427,0,0,1-4,2.69,6.58,6.58,0,0,1-4.86.6c-2.11-.72-3.38-3-3.59-5.2a10.49,10.49,0,0,1,0-2.17l.06.16c.87,2.1,2.29,4.3,4.53,4.67a6.13,6.13,0,0,0,4.62-1.63c3.3-2.65,5.22-6.6,7.05-10.41a43.3,43.3,0,0,0,3.38-8.63c.4-1.7.59-3.44,1-5.14,1.9-8.26,8.37-15,9.8-23.37a5.717,5.717,0,0,0,.08-1.75,8.844,8.844,0,0,0-.86-2.18,10.8,10.8,0,0,1-.76-2.42c2,.72,4.12,1.83,4.75,3.85a6.291,6.291,0,0,1-.16,3.39Z" transform="translate(-28 -123.74)"/><path class="g" d="M843.74,564.12a14.491,14.491,0,0,1-4.51,6.16,22,22,0,0,1-9.71,4.2,9.66,9.66,0,0,1-5-.06c-2.22-.77-3.82-2.85-6.09-3.45-1.62-.44-3.36-.05-5-.29-2.95-.41-5.24-2.66-7.62-4.46-7.29-5.48-16.86-7.25-24.15-12.73a2.24,2.24,0,0,1-.78-.81,2.41,2.41,0,0,1-.15-1.13,23,23,0,0,1,2.19-9.61,33.524,33.524,0,0,1,4.12-5.87c6.53-8,13.09-16.06,20.91-22.81,3.28-2.83,6.86-5.47,11-6.75,2.3-.71,6.84-1.38,9.64-.18a5.577,5.577,0,0,0-1.11,1,13.759,13.759,0,0,0-2,4.1C821.27,522.38,810,528,801,535.46l-8.22,6.81c-1.12.93-2.36,2.29-1.81,3.64a3.27,3.27,0,0,0,1.72,1.48c4.78,2.36,10.39,3.31,14.33,6.91,1.44,1.32,2.82,3.06,4.77,3.16a9.579,9.579,0,0,0,3-.67,10.09,10.09,0,0,1,8.81,1.76,8.57,8.57,0,0,0,2.4,1.65,5.83,5.83,0,0,0,2.28.14c2.13-.15,4.39-.34,6.3.61s3.48,3.19,5.71,3.35C841.4,564.38,842.7,564,843.74,564.12Z" transform="translate(-28 -123.74)"/><path class="e" d="M751.77,428.4c-1.9,1.22-3.92,2.6-4.7,4.72-.64,1.73-.34,3.71-1.11,5.39s-2.5,2.85-2.88,4.65c-.27,1.31.26,2.69,0,4a17.239,17.239,0,0,0-.55,2.08c-.1,1.49,1.18,2.7,2.43,3.53a20.3,20.3,0,0,0,18.17,2c2.67-1,5.08-2.63,7.64-3.91a15.11,15.11,0,0,1,8.23-2c1.65.18,3.23.78,4.88,1a5.12,5.12,0,0,0,4.57-1.36,5.7,5.7,0,0,0,1-2.37c1.39-5.49.76-11.31-.56-16.83s-3.32-10.83-4.73-16.32c-1-4.07-1.77-8.24-3.44-12.09s-4.48-7.43-8.41-8.9a1.57,1.57,0,0,0-1-.13,1.7,1.7,0,0,0-.65.48,30.749,30.749,0,0,0-6.86,11.54c-1.57,4.79-2,9.87-3.44,14.68-.62,2-1.42,4.68-3,6.21S753.56,427.25,751.77,428.4Z" transform="translate(-28 -123.74)"/><path class="g" d="M789.48,446.1a5.831,5.831,0,0,1-1.05,2.37,5.07,5.07,0,0,1-4.57,1.35c-1.64-.2-3.22-.81-4.87-1a15.08,15.08,0,0,0-8.23,2c-2.56,1.28-5,2.87-7.65,3.9a20.19,20.19,0,0,1-12.13.69,19.571,19.571,0,0,1-6-2.64c-1.26-.82-2.53-2-2.43-3.53a17.1,17.1,0,0,1,.55-2.07c.26-1.31-.26-2.69,0-4,.38-1.8,2.12-3,2.88-4.66s.47-3.65,1.1-5.38c.78-2.13,2.81-3.5,4.71-4.73s4.16-2.17,5.68-3.66A5.635,5.635,0,0,0,758,424a18,18,0,0,0,2.38-5.51c1.47-4.82,1.87-9.89,3.43-14.69a30.81,30.81,0,0,1,6.87-11.53,1.51,1.51,0,0,1,.64-.48,1.6,1.6,0,0,1,1,.12c3.92,1.48,6.73,5.06,8.41,8.91s2.39,8,3.44,12.08c1.4,5.49,3.41,10.82,4.73,16.33S790.87,440.6,789.48,446.1Z" transform="translate(-28 -123.74)"/><path class="g" d="M819.22,324.14a20,20,0,0,1-24.36-11,23.722,23.722,0,0,1,.4-2.79c1-4.6,5.28-2.92,8.66-1.7a67.717,67.717,0,0,1,11.75,5.09,8.43,8.43,0,0,1,2.9,2.46C820.05,318.41,819.46,321.35,819.22,324.14Z" transform="translate(-28 -123.74)"/><circle class="d" cx="20" cy="20" r="20" transform="translate(765.18 160.34)"/><path class="g" d="M867.45,453.54c0,1.66-2.25,2.19-3.92,2.1-6-.35-11.87-2-17.81-1.5-7.51.68-14.41,4.83-21.94,5.21-2.9.15-5.85-.28-8.71.25-3.7.69-7,2.94-10.77,3.26-3.27.28-6.5-.95-9.77-.82A15.7,15.7,0,0,0,788,463.9a9.19,9.19,0,0,1,2.68-5.59c2.39-2.35,5.79-1.74,9.09-2.3a52.07,52.07,0,0,0,9.6-3.07,94.311,94.311,0,0,1,27.11-6.27A59.19,59.19,0,0,1,863.85,451a15.569,15.569,0,0,1,3.53,2,1.568,1.568,0,0,1,.07.54Z" transform="translate(-28 -123.74)"/><path class="h" d="M803.93,340.6l-8.1-3-3.42-1.26a16.54,16.54,0,0,0-4.36-1.16c-3.92-.3-7.61,2.31-9.7,5.64s-2.88,7.3-3.55,11.17q-1.38,7.94-2.34,15.94a104.125,104.125,0,0,0-1.05,14.54c.23,12.38,2.85,24.59,5.73,36.64a128.871,128.871,0,0,1,3.19,16.25c.24,2.26.35,4.53.59,6.8.26,2.55.68,5.07,1.1,7.6l2.41,14.37c3-2.13,6.41-4,10.1-4.11,3.27-.12,6.51,1.1,9.77.82,3.75-.31,7.07-2.56,10.77-3.25,2.86-.53,5.81-.11,8.72-.25,7.52-.38,14.43-4.54,21.93-5.21,5.95-.54,11.86,1.14,17.82,1.49,1.66.1,3.91-.43,3.91-2.1,0-1.16-1.16-1.93-2.17-2.51a107,107,0,0,1-13.55-9.67c-3.94-3.12-7.94-6.32-10.65-10.54-6.53-10.15-4.29-23.88-9.86-34.59-4.53-8.7,0-20.1,0-29.91,0-4.89,0-9.84-1.15-14.59a61.89,61.89,0,0,0-2.68-7.8l-3.89-9.85a1.61,1.61,0,0,0-.46-.75,1.53,1.53,0,0,0-.89-.27,9.38,9.38,0,0,0-6.46,2.07c-1.83,1.49-3,3.63-4.8,5.18C808.92,340,806.38,341.5,803.93,340.6Z" transform="translate(-28 -123.74)"/><path class="e" d="M817,334.92c.64-2.74,1.33-5.59,3.16-7.73s5.17-3.27,7.53-1.74c2.68,1.74,2.79,5.76,5.08,8,2,1.92,5,2.07,7.72,2.32a52.351,52.351,0,0,1,14.27,3.36,5.83,5.83,0,0,1,2.37,1.42c1.25,1.42,1,3.6,1.62,5.37.85,2.28,3.2,3.73,4.11,6,1,2.52,0,5.34-.84,7.93-1.51,4.65-2.46,9.48-3.93,14.15s-3.56,9.27-7,12.79c-1.52,1.56-3.78,3-5.78,2.07l-.77,5.55a9.429,9.429,0,0,0,0,3.55,3.18,3.18,0,0,0,2.32,2.46c.15.86,1.06,1.27,1.8,1.74a5,5,0,0,1,1.27,7c-.63.85-1.56,1.52-1.86,2.53-.45,1.46.62,3,1.92,3.8s2.83,1.17,4.15,1.94c2.74,1.58,4.21,4.69,5.15,7.71.7,2.28,1.28,4.75,3,6.41.66.63,1.45,1.11,2.08,1.77a7.59,7.59,0,0,1,1.79,4.59,9.11,9.11,0,0,1-1.3,6c-2,2.86-5.73,3.71-9,5-5.31,2.18-9.68,6.08-14.36,9.4a15.321,15.321,0,0,1-6.55,3.08c-3.24.43-6.43-1-9.69-1.13a24.06,24.06,0,0,0-5.78.76l-6,1.3c.32-4.65-2.24-9.31-3.67-13.74-2.7-8.34-3.2-17.26-2.56-26s2.42-17.36,4.18-25.94c1.23-6,1.11-12.27,3-18.1,1.77-5.61,4.3-11,5.23-16.84C821.18,352.25,814.86,344.24,817,334.92Z" transform="translate(-28 -123.74)"/><path class="e" d="M862.49,353.41a11,11,0,0,1,1.15,3.25,11.731,11.731,0,0,0,2.53,4.76,16.393,16.393,0,0,1,2.66,3c.92,1.74.57,3.86,1,5.76.5,2.07,1.95,3.87,2.16,6a11,11,0,0,0,.17,1.82c.65,2.42,4.21,3,5,5.42.53,1.57-.38,3.28-.21,4.93a4.34,4.34,0,0,1,.09,1.56,3.17,3.17,0,0,1-1.14,1.46,23,23,0,0,0-6.58,11.71,66.688,66.688,0,0,0-1.51,13.53l-3.91-5.17a5.941,5.941,0,0,0-1.56-1.6c-.5-.3-1.08-.45-1.59-.75-1.48-.84-2.06-2.62-2.63-4.22a39,39,0,0,0-7-12.12c-1.59-1.87-3.44-3.75-3.79-6.18a11.383,11.383,0,0,1,.18-3.34c1-6.55,2.07-13.26,5.26-19.07,1.49-2.72,3.42-5.18,4.85-7.94C858.58,354.39,859.93,349.63,862.49,353.41Z" transform="translate(-28 -123.74)"/><path class="e" d="M763.84,359.7a4.57,4.57,0,0,1-.62,2.4,3.16,3.16,0,0,1-3.16,1,9.139,9.139,0,0,1-3.16-1.48q-4.18-2.64-8.36-5.29a46.278,46.278,0,0,1-4.49-3.08,40.075,40.075,0,0,1-5.93-6.21c-4.86-6-9.16-12.51-14.57-18-1.47-1.5-3-2.94-4.42-4.51a65.817,65.817,0,0,1-5.34-7.18c-1.56-2.31-3.18-4.87-2.91-7.63.16-1.56.91-3,1.13-4.55s-.37-3.44-1.87-3.86a3.381,3.381,0,0,0-.54-.09,4.083,4.083,0,0,1-.87-.19c-1.39-.58-1.18-2.73-.18-3.86s2.48-1.76,3.39-3a18.089,18.089,0,0,1,1.42-2.11,5.41,5.41,0,0,1,2.33-1.17,36.061,36.061,0,0,1,17.75-.67c1,.22,2.14.62,2.44,1.59a2.93,2.93,0,0,1,0,1.44,32.191,32.191,0,0,0-.76,6,10.625,10.625,0,0,0,.07,1.26c.47,4.24,3.22,7.83,5.9,11.14,3.18,3.94,6.41,7.85,9.65,11.75a46.172,46.172,0,0,0,5.85,6.25c2,1.66,4.59,3,6.15,5.13,1.27,1.72.86,4.07,1,6.14a136.3,136.3,0,0,1,.1,18.78Z" transform="translate(-28 -123.74)"/><path class="d" d="M890.84,401.42a21,21,0,0,0,2.66-3.15,20.777,20.777,0,0,0,2-4.47l5.8-16.45c.92-2.6,1.84-5.21,3-7.74,1.2-2.73,2.62-5.36,3.93-8A106.7,106.7,0,0,0,916,339.86a8.061,8.061,0,0,0,.31-3.19c-.28-1.73-1.59-3.08-2.84-4.31a20.789,20.789,0,0,0-4.26-3.52,7,7,0,0,0-5.34-.86c-2.56.75-4.17,3.37-4.76,6s-.37,5.32-.62,8c-.36,3.84-1.68,7.55-2,11.4-.17,2.23,0,4.48-.27,6.7a24.471,24.471,0,0,1-3,8.27,53.691,53.691,0,0,1-12.93,15.9,20.793,20.793,0,0,0-3.88,3.73,12.171,12.171,0,0,0-1.87,4.66,10.73,10.73,0,0,0,.81,7.57c1.63,2.78,4.76,4,7.75,4.62C887.14,405.67,888.07,404.29,890.84,401.42Z" transform="translate(-28 -123.74)"/><path class="e" d="M813.3,275.1a9.33,9.33,0,0,1,9.06-4.91,10,10,0,0,1,7.86,7.06c.47,1.49.66,3.14,1.48,4.42,1.24,1.93,3.54,2.49,5.26,3.89a10.53,10.53,0,0,1,3.36,7.44,22.509,22.509,0,0,1-1.33,8.41,26.748,26.748,0,0,0-1,3.52c-.2,1.16-.22,2.34-.4,3.5A11.4,11.4,0,0,1,833,316a2,2,0,0,1-1.24.45c-.78-.09-1.26-1-1.55-1.82-1.59-4.59-1.21-10.2-4.14-13.86a15.151,15.151,0,0,0-4.74-3.53,6.11,6.11,0,0,0-2.42-.91,6.37,6.37,0,0,0-3.5,1.28,21.791,21.791,0,0,1-6.92,3.06,8.5,8.5,0,0,1-7.15-1.54c-1.38-1.14-2.39-2.85-3.92-3.74s-3.13-.84-4.64-1.45A6.87,6.87,0,0,1,790,283.46c1-1.2,2.48-1.88,3.37-3.21,1.15-1.72,1.05-4.08,1.6-6.14a8.45,8.45,0,0,1,5.09-5.81,7.15,7.15,0,0,1,7.12,1.49c1,.9,1.8,2.06,2.78,3a8,8,0,0,0,7.4,2" transform="translate(-28 -123.74)"/><path class="g" d="M829.74,422.29a3.88,3.88,0,0,0-1.06,4.24c.22.47,10.54-1.52,11.63-1.67,2.72-.39,7.49-.2,9.32-2.69,3.26-4.41-6.84-3.43-8.69-3.27C837.42,419.2,832.42,419.68,829.74,422.29Z" transform="translate(-28 -123.74)"/><path class="e" d="M735.86,293.29a32.2,32.2,0,0,0-.76,6c-3,.61-6.12-.39-9-1.39l-8.27-2.82a2.35,2.35,0,0,0-3.16.59c-1.33,1.38-3.16,4-5,5.55a4.081,4.081,0,0,1-.87-.19c-1.39-.58-1.18-2.73-.18-3.86s2.48-1.76,3.39-3a18.089,18.089,0,0,1,1.42-2.11,5.41,5.41,0,0,1,2.33-1.17,36.06,36.06,0,0,1,17.75-.67c1,.22,2.14.62,2.44,1.59A2.931,2.931,0,0,1,735.86,293.29Z" transform="translate(-28 -123.74)"/><path class="g" d="M735.86,293.29a32.2,32.2,0,0,0-.76,6c-3,.61-6.12-.39-9-1.39l-8.27-2.82a2.35,2.35,0,0,0-3.16.59c-1.33,1.38-3.16,4-5,5.55a4.081,4.081,0,0,1-.87-.19c-1.39-.58-1.18-2.73-.18-3.86s2.48-1.76,3.39-3a18.089,18.089,0,0,1,1.42-2.11,5.41,5.41,0,0,1,2.33-1.17,36.06,36.06,0,0,1,17.75-.67c1,.22,2.14.62,2.44,1.59A2.931,2.931,0,0,1,735.86,293.29Z" transform="translate(-28 -123.74)"/><path class="g" d="M811.51,483.14c1.44.48,3,1.18,3.49,2.62l-11.58-2.94-6-1.53c-1.06-.27-4.86-.58-5.56-1.41-1-1.22,2.55-.38,3.19-.29,1.94.29,3.88.59,5.81.94C804.5,481.18,808,482.25,811.51,483.14Z" transform="translate(-28 -123.74)"/><path class="g" d="M816,493.39c-1-.67-3.87-.59-5.1-.88-1.8-.43-3.57-1-5.34-1.55-3.59-1.17-7.15-2.5-10.84-3.36-.68-.15-3-.19-2.89-1.05s2.32-1.16,2.87-1.2c3.27-.24,7.35,1.29,10.39,2.38A45.793,45.793,0,0,1,816,493.39Z" transform="translate(-28 -123.74)"/><path class="g" d="M808.66,474c-3.67-1-7-3.28-10.78-3.72a4.38,4.38,0,0,1-2.75-.84,3.24,3.24,0,0,1-.89-1.6c2.53-.13,5.47.94,7.77,1.95a24.446,24.446,0,0,1,3.64,1.94C806.49,472.24,807.75,473.71,808.66,474Z" transform="translate(-28 -123.74)"/><path class="e" d="M878.62,384.46a17.49,17.49,0,0,0,12.26,19.33c-.49,2.37-2.94,3.68-4.67,5.37-2.44,2.37-3.7,5.92-6.58,7.72-3.21,2-7.34,1.22-11,.38a1.34,1.34,0,0,1-.86-.45,1.23,1.23,0,0,1-.16-.39c-1.21-4.43-2-9.16-.76-13.6,1-3.78,3.4-7,5.32-10.34S874.27,385.56,878.62,384.46Z" transform="translate(-28 -123.74)"/><path class="e" d="M789.21,327.12a26,26,0,0,0-11,3.35c-2.24,1.28-4.54,3-7.1,2.69-1.51-.17-3-1-4.47-.6a8.771,8.771,0,0,0-2.29,1.36,2.59,2.59,0,0,1-2.52.4l-1,13.84c-.38,5.26-.75,10.63.51,15.76.65,2.62,2.08,5,2.24,7.66s-.08,5.39.11,8.08c.18,2.49.73,4.94.87,7.43.28,4.7-.88,9.36-2,13.93-1.69,6.74-2.71,13.63-6,19.73-.92,1.69-2,3.41-2,5.33a2.725,2.725,0,0,0,.06.7c-1,.55-1.93,1.07-2.78,1.61-1.9,1.23-3.93,2.6-4.71,4.73-.63,1.73-.34,3.71-1.1,5.38s-2.5,2.86-2.88,4.66c-.27,1.31.25,2.69,0,4a17.092,17.092,0,0,0-.55,2.07c-.1,1.5,1.17,2.71,2.43,3.53a19.571,19.571,0,0,0,6,2.64L757,431.7h0a191.088,191.088,0,0,0,13.53-31.47,67.667,67.667,0,0,1,3.91-10.36,48.683,48.683,0,0,0,3-5.88c.91-2.52,1-5.25,1.44-7.91a55.358,55.358,0,0,1,2.35-9.13c1.08-3.21,2.33-6.41,2.55-9.78.33-4.82-1.42-9.91.44-14.37a19.11,19.11,0,0,1,3.05-4.59c2.58-3.16,4.93-6.47,7.51-9.63C793.44,327.15,791.21,327,789.21,327.12Z" transform="translate(-28 -123.74)"/><g class="i"><path d="M817.39,271.81l-1.25.09-.14.1a7.377,7.377,0,0,0,1.39-.19Z" transform="translate(-28 -123.74)"/><path d="M840.27,292.57a26.943,26.943,0,0,1-1.28,5.84,26.748,26.748,0,0,0-1,3.52c-.2,1.16-.22,2.34-.4,3.5A11.4,11.4,0,0,1,833,313a2,2,0,0,1-1.24.45c-.78-.09-1.26-1-1.55-1.82-1.59-4.59-1.21-10.2-4.14-13.86a15.15,15.15,0,0,0-4.74-3.53,6.11,6.11,0,0,0-2.42-.91,6.37,6.37,0,0,0-3.5,1.28,21.788,21.788,0,0,1-6.92,3.06,8.5,8.5,0,0,1-7.15-1.54c-1.38-1.14-2.39-2.85-3.92-3.74s-3.13-.84-4.64-1.45a6.83,6.83,0,0,1-3.9-4.46,2.851,2.851,0,0,1-.08-.38,7,7,0,0,0,.08,3.38,6.83,6.83,0,0,0,3.9,4.46c1.51.61,3.21.62,4.64,1.45s2.54,2.6,3.92,3.74a8.5,8.5,0,0,0,7.15,1.54,21.79,21.79,0,0,0,6.92-3.06,6.37,6.37,0,0,1,3.5-1.28,6.11,6.11,0,0,1,2.42.91A15.15,15.15,0,0,1,826,300.8c2.93,3.66,2.55,9.27,4.14,13.86.29.83.77,1.73,1.55,1.82A2,2,0,0,0,833,316a11.4,11.4,0,0,0,4.6-7.6c.18-1.16.2-2.34.4-3.5a26.74,26.74,0,0,1,1-3.52,22.509,22.509,0,0,0,1.33-8.41C840.31,292.85,840.29,292.71,840.27,292.57Z" transform="translate(-28 -123.74)"/></g><path class="j" d="M777,372.81l-.68,9.13c-.1,1.24-2.47,30.76-19.95,65.26-15,29.59-44.19,68.13-99.3,89.79q-6.45,2.55-13.39,4.76l-5.16-16.2a189.434,189.434,0,0,0,37.22-16.28c28.09-16.22,49.93-39.37,65.16-69.16a185.772,185.772,0,0,0,17.1-50.3H695.3v-17Z" transform="translate(-28 -123.74)"/><path class="k" d="M650.32,537c55.1-21.66,84.3-60.19,99.29-89.78,17.48-34.5,19.86-64,19.95-65.26l.68-9.13h7l-.68,9.13c-.09,1.24-2.47,30.76-19.95,65.26-15,29.59-44.19,68.12-99.29,89.78q-6.45,2.55-13.4,4.77l-.68-2.13Q646.86,538.35,650.32,537Z" transform="translate(-28 -123.74)"/><path class="j" d="M540,525.55l-5.16,16.2q-6.95-2.22-13.4-4.77c-55.1-21.66-84.3-60.19-99.29-89.78-17.48-34.5-19.86-64-19.95-65.26l-.68-9.13h81.66v17H420.47a185.881,185.881,0,0,0,17.15,50.3c15.23,29.79,37.06,52.94,65.15,69.15A189,189,0,0,0,540,525.55Z" transform="translate(-28 -123.74)"/><path class="k" d="M528.18,537c-55.1-21.66-84.3-60.19-99.29-89.78-17.48-34.5-19.86-64-19.95-65.26l-.68-9.13h-7l.68,9.13c.09,1.24,2.47,30.76,19.95,65.26,15,29.59,44.19,68.12,99.29,89.78q6.45,2.55,13.4,4.77l.68-2.13Q531.65,538.35,528.18,537Z" transform="translate(-28 -123.74)"/><path class="j" d="M683.59,682.15v91.67H494.92V682.15l6-8c61.14-21.7,73.53-78.29,76-100.68a92.045,92.045,0,0,0,.63-9.32h23.33a92.061,92.061,0,0,0,.63,9.32c2.51,22.39,14.9,79,76,100.68Z" transform="translate(-28 -123.74)"/><rect class="g" width="188.67" height="11.5" transform="translate(466.92 558.41)"/><path class="k" d="M510.92,674.15c61.14-21.7,73.53-78.29,76-100.68a92.044,92.044,0,0,0,.63-9.32h-10a92.043,92.043,0,0,1-.63,9.32c-2.51,22.39-14.9,79-76,100.68l-6,8v91.67h10V682.15Z" transform="translate(-28 -123.74)"/><path class="g" d="M466.26,372.81h16.92v17H467.76Q466.85,381.41,466.26,372.81Z" transform="translate(-28 -123.74)"/><path class="g" d="M540,525.55l-5.16,16.2q-6.95-2.22-13.4-4.77a179.153,179.153,0,0,1-18.67-27.72A189,189,0,0,0,540,525.55Z" transform="translate(-28 -123.74)"/><path class="g" d="M638.51,525.55a189.435,189.435,0,0,0,37.22-16.28A179.861,179.861,0,0,1,657.06,537q-6.45,2.55-13.39,4.76Z" transform="translate(-28 -123.74)"/><path class="g" d="M712.24,372.81q-.59,8.6-1.5,17H695.33v-17Z" transform="translate(-28 -123.74)"/><path class="g" d="M601.55,573.47a64.64,64.64,0,0,1-24.59,0,92.043,92.043,0,0,0,.63-9.32h23.33a92.061,92.061,0,0,0,.63,9.32Z" transform="translate(-28 -123.74)"/><path class="j" d="M468.26,344.65c.43,126.06,54.43,228,121,228s120.56-101.94,121-228Z" transform="translate(-28 -123.74)"/><path class="k" d="M489.76,344.65h-21.5c.43,126.06,54.43,228,121,228a65.355,65.355,0,0,0,10.75-.91C538.47,561.46,490.17,463.85,489.76,344.65Z" transform="translate(-28 -123.74)"/><rect class="e" width="128.33" height="33" transform="translate(497.09 593.5)"/><g class="i"><path d="M297.74,519.1a11.39,11.39,0,0,0-5.13.74c-3.6,1.75-4.28,6.48-6.28,9.95-2.34,4.06-6.8,6.57-11.39,7.5a25.439,25.439,0,0,1-2.76.38,31.342,31.342,0,0,0,8.76-.38c4.59-.93,9.05-3.44,11.39-7.5,2-3.47,2.68-8.2,6.28-9.95a8,8,0,0,1,3-.7Z" transform="translate(-28 -123.74)"/></g><path class="b" d="M915.29,123.85S831.1,118.77,841,177.77c0,0-2,10.43,7.48,15.16,0,0,.15-4.37,8.64-2.88a39.5,39.5,0,0,0,9.15.44,19.06,19.06,0,0,0,11.18-4.62h0s23.67-9.78,32.87-48.46c0,0,6.81-8.44,6.54-10.61l-14.21,6.07s4.86,10.25,1,18.77c0,0-.46-18.4-3.19-18-.55.09-7.38,3.55-7.38,3.55s8.35,17.85,2.05,30.83c0,0,2.39-22-4.66-29.54l-10,5.84s9.76,18.44,3.14,33.49c0,0,1.7-23.08-5.25-32.07l-9.06,7.07s9.17,18.18,3.58,30.66c0,0-.73-26.87-5.54-28.9,0,0-7.93,7-9.14,9.86,0,0,6.28,13.2,2.38,20.16,0,0-2.39-17.9-4.35-18,0,0-7.9,11.86-8.72,20,0,0,.34-12.09,6.81-21.12,0,0-7.64,1.31-12.1,6.26,0,0,1.23-8.38,14.05-9.11,0,0,6.53-9,8.27-9.55,0,0-12.74-1.06-20.47,2.36,0,0,6.8-7.91,22.81-4.31l8.95-7.31s-16.78-2.29-23.9.24c0,0,8.19-7,26.31-1.9l9.74-5.82s-14.31-3.08-22.83-2c0,0,9-4.85,25.69.41l7-3.13s-10.48-2.06-13.55-2.39-3.23-1.17-3.23-1.17a36.35,36.35,0,0,1,19.69,2.19S915.55,124.78,915.29,123.85Z" transform="translate(-28 -123.74)"/><path class="b" d="M811.45,138.86s-38-2.3-33.55,24.36c0,0-.89,4.72,3.37,6.86,0,0,.07-2,3.91-1.31a17.508,17.508,0,0,0,4.13.2,8.57,8.57,0,0,0,5.05-2.09h0s10.7-4.41,14.86-21.89c0,0,3.07-3.82,2.95-4.8l-6.42,2.74s2.2,4.64.47,8.49c0,0-.21-8.32-1.44-8.12-.25,0-3.34,1.6-3.34,1.6s3.78,8.07.93,13.94c0,0,1.08-9.94-2.11-13.35l-4.52,2.64s4.42,8.33,1.42,15.13c0,0,.77-10.43-2.37-14.49L790.7,152s4.14,8.22,1.62,13.85c0,0-.33-12.14-2.51-13.05,0,0-3.58,3.16-4.13,4.46,0,0,2.84,6,1.08,9.1,0,0-1.08-8.09-2-8.12,0,0-3.56,5.36-3.94,9a19.55,19.55,0,0,1,3.08-9.55,10.76,10.76,0,0,0-5.47,2.83s.56-3.78,6.35-4.12c0,0,3-4.06,3.74-4.31,0,0-5.76-.48-9.25,1.07,0,0,3.07-3.58,10.31-2l4-3.3s-7.58-1-10.8.11c0,0,3.7-3.16,11.89-.86l4.4-2.63s-6.46-1.4-10.32-.89c0,0,4.07-2.2,11.61.18l3.15-1.41s-4.74-.94-6.13-1.08-1.46-.53-1.46-.53a16.39,16.39,0,0,1,8.9,1S811.57,139.28,811.45,138.86Z" transform="translate(-28 -123.74)"/><ellipse class="j" cx="40.21" cy="6.8" rx="40.21" ry="6.8" transform="translate(875.98 637.16)"/><path class="j" d="M960.82,756.58a11.641,11.641,0,0,0,3.83-5.79c.5-2.29-.48-5-2.68-5.89-2.46-.94-5.09.77-7.08,2.49s-4.28,3.69-6.88,3.32a10.5,10.5,0,0,0,3.24-9.81,4.12,4.12,0,0,0-.9-2c-1.37-1.46-3.84-.84-5.48.31-5.2,3.66-6.65,10.73-6.68,17.08-.52-2.29-.08-4.68-.09-7s-.66-5-2.65-6.23a7.91,7.91,0,0,0-4-.94c-2.33-.09-4.94.15-6.53,1.86-2,2.12-1.47,5.68.25,8s4.35,3.81,6.77,5.42a15,15,0,0,1,4.83,4.61,4.156,4.156,0,0,1,.36.83h14.66a40.77,40.77,0,0,0,9.03-6.26Z" transform="translate(-28 -123.74)"/></g></g></svg>